<?xml version="1.0" encoding="utf-8"?>
<!-- Generator: Adobe Illustrator 26.0.2, SVG Export Plug-In . SVG Version: 6.00 Build 0)  -->
<svg version="1.1" id="Layer_1" xmlns="http://www.w3.org/2000/svg" xmlns:xlink="http://www.w3.org/1999/xlink" x="0px" y="0px"
	 viewBox="0 0 151 24.4" style="enable-background:new 0 0 151 24.4;" xml:space="preserve">
<style type="text/css">
	.st0{fill:#FFFFFF;}
</style>
<g>
	<g>
		<path class="st0" d="M21.7,23.9H1.4v-3L13.9,6.7l2.1-2V4.6H1.6V0.9h19.9v3L9.2,18.1l-2,2v0.1h14.6V23.9z"/>
		<path class="st0" d="M67.6,23.9h-5.2l-4.9-6.4l-1.3-2.2h-0.1l-1.3,2.2l-4.9,6.4h-5.2l8.9-11.5L44.8,0.9H50l5,6.5l1.2,1.9h0.1
			l1.2-1.9l5-6.5h5.2l-8.9,11.5L67.6,23.9z"/>
		<path class="st0" d="M88.3,4.6h-8v19.3h-4.1V4.6h-8V0.9h20.1V4.6z"/>
		<g>
			<rect x="24.1" y="10.5" class="st0" width="17.3" height="3.8"/>
			<rect x="24.1" y="20.2" class="st0" width="18.7" height="3.8"/>
			<rect x="24.1" y="0.9" class="st0" width="18.7" height="3.8"/>
		</g>
	</g>
	<g>
		<g>
			<path class="st0" d="M113.1,0.9l-8.7,18.6l-1.7-3.4c-0.6-1.2-1.6-2.1-2.4-2.5v-0.1c2.1-1,4.1-3.1,4.1-5.7c0-4.8-4-7.1-8.4-7.1
				h-6.3v3.8h6.3c2.6,0,4.3,0.9,4.3,3.3c0,1.8-1.5,3.3-4.6,3.3h-6V15h4.1c2.8,0,4.3,0.9,5.2,2.9l3.1,6.1h4.9l2.6-5.5h11.2l2.6,5.5
				h4.5l-10.8-23C116.9,0.9,113.1,0.9,113.1,0.9z M119.1,14.7h-8.2l0.3-0.4l3.8-8.4h0.1l3.8,8.4L119.1,14.7z"/>
			<path class="st0" d="M140.4,10.9c-0.6-0.1-3.2-0.8-3.7-1c-4-1-5-1.8-5-2.9c0-1.1,1.3-2.7,5.5-2.7c2.8,0,4.9,1,6.6,3.1l3-3
				c-2.6-2.6-5.8-3.9-9.6-3.9c-6.5,0-9.7,3-9.7,6.5c0,3.7,3.4,5.2,7.5,6.3c0.5,0.1,3.8,0.9,4.3,1.1c3,0.7,3.9,2,3.9,3
				c0,1.5-1.6,2.9-5.8,2.9c-2.7,0-4.8-0.8-7.6-3.3l-3,2.9c3,2.9,6.9,4.1,10.7,4.1c7,0,9.9-3.3,9.9-6.8
				C147.4,14.4,145.2,12,140.4,10.9z"/>
		</g>
		<g>
			<path class="st0" d="M148.4,2.7c-0.7,0-1.2-0.6-1.2-1.2s0.6-1.2,1.2-1.2c0.7,0,1.2,0.6,1.2,1.2C149.6,2.1,149.1,2.7,148.4,2.7z
				 M148.4,0.3c-0.6,0-1.1,0.5-1.1,1.1s0.5,1.1,1.1,1.1c0.6,0,1.1-0.5,1.1-1.1C149.5,0.8,149,0.3,148.4,0.3z M149,2.1h-0.2l-0.2-0.4
				c-0.1-0.1-0.2-0.2-0.3-0.2H148l0,0v0.6h-0.2V0.8h0.6c0.3,0,0.5,0.1,0.5,0.4c0,0.2-0.1,0.3-0.3,0.4c0.1,0.1,0.1,0.1,0.2,0.2
				L149,2.1z M148.5,0.9H148h0v0.5l0,0h0.4c0.2,0,0.3-0.1,0.3-0.2C148.8,0.9,148.6,0.9,148.5,0.9z"/>
		</g>
	</g>
</g>
</svg>
